<svg xmlns="http://www.w3.org/2000/svg" viewBox="0 0 1440 700" preserveAspectRatio="xMidYMid slice">
  <defs>
    <linearGradient id="brand" x1="0%" y1="0%" x2="100%" y2="100%">
      <stop offset="0%" stop-color="#1ABCAC"/>
      <stop offset="100%" stop-color="#0D9E90"/>
    </linearGradient>
    <filter id="glow-lg" x="-80%" y="-80%" width="260%" height="260%">
      <feGaussianBlur stdDeviation="18" result="b"/>
      <feMerge><feMergeNode in="b"/><feMergeNode in="SourceGraphic"/></feMerge>
    </filter>
    <filter id="glow-md" x="-60%" y="-60%" width="220%" height="220%">
      <feGaussianBlur stdDeviation="10" result="b"/>
      <feMerge><feMergeNode in="b"/><feMergeNode in="SourceGraphic"/></feMerge>
    </filter>
    <filter id="glow-dot" x="-300%" y="-300%" width="700%" height="700%">
      <feGaussianBlur stdDeviation="4"/>
    </filter>
    <linearGradient id="fade" x1="0%" y1="0%" x2="100%" y2="0%">
      <stop offset="0%"   stop-color="#0A0E1A" stop-opacity="1"/>
      <stop offset="36%"  stop-color="#0A0E1A" stop-opacity="0.98"/>
      <stop offset="56%"  stop-color="#0A0E1A" stop-opacity="0.28"/>
      <stop offset="100%" stop-color="#0A0E1A" stop-opacity="0"/>
    </linearGradient>
  </defs>

  <!--
    Flat-top honeycomb grid.  r=50, r_h=43, r_2=25.
    Col x-step=87.  Row y-step=75.  Alt-col y-offset=38.
    Even cols (0,2,4,6): y = 38,113,188,263,338,413,488,563,638
    Odd cols  (1,3,5,7): y = 0,75,150,225,300,375,450,525,600,675
    Hex poly at (cx,cy): cx+50,cy  cx+25,cy-43  cx-25,cy-43  cx-50,cy  cx-25,cy+43  cx+25,cy+43
  -->

  <!-- ══ COL 0  x=790  opacity 0.16 ══ -->
  <g stroke="#1ABCAC" stroke-width="0.8" fill="none" opacity="0.16">
    <polygon points="840,38 815,-5 765,-5 740,38 765,81 815,81"/>
    <polygon points="840,113 815,70 765,70 740,113 765,156 815,156"/>
    <polygon points="840,188 815,145 765,145 740,188 765,231 815,231"/>
    <polygon points="840,263 815,220 765,220 740,263 765,306 815,306"/>
    <polygon points="840,338 815,295 765,295 740,338 765,381 815,381"/>
    <polygon points="840,413 815,370 765,370 740,413 765,456 815,456"/>
    <polygon points="840,488 815,445 765,445 740,488 765,531 815,531"/>
    <polygon points="840,563 815,520 765,520 740,563 765,606 815,606"/>
    <polygon points="840,638 815,595 765,595 740,638 765,681 815,681"/>
  </g>

  <!-- ══ COL 1  x=877  opacity 0.20 ══ -->
  <g stroke="#1ABCAC" stroke-width="0.8" fill="none" opacity="0.20">
    <polygon points="927,0 902,-43 852,-43 827,0 852,43 902,43"/>
    <polygon points="927,75 902,32 852,32 827,75 852,118 902,118"/>
    <polygon points="927,150 902,107 852,107 827,150 852,193 902,193"/>
    <polygon points="927,225 902,182 852,182 827,225 852,268 902,268"/>
    <polygon points="927,300 902,257 852,257 827,300 852,343 902,343"/>
    <polygon points="927,375 902,332 852,332 827,375 852,418 902,418"/>
    <polygon points="927,450 902,407 852,407 827,450 852,493 902,493"/>
    <polygon points="927,525 902,482 852,482 827,525 852,568 902,568"/>
    <polygon points="927,600 902,557 852,557 827,600 852,643 902,643"/>
    <polygon points="927,675 902,632 852,632 827,675 852,718 902,718"/>
  </g>

  <!-- ══ COL 2  x=964  opacity 0.24 ══ -->
  <g stroke="#1ABCAC" stroke-width="0.8" fill="none" opacity="0.24">
    <polygon points="1014,38 989,-5 939,-5 914,38 939,81 989,81"/>
    <polygon points="1014,113 989,70 939,70 914,113 939,156 989,156"/>
    <polygon points="1014,188 989,145 939,145 914,188 939,231 989,231"/>
    <polygon points="1014,263 989,220 939,220 914,263 939,306 989,306"/>
    <polygon points="1014,338 989,295 939,295 914,338 939,381 989,381"/>
    <polygon points="1014,413 989,370 939,370 914,413 939,456 989,456"/>
    <polygon points="1014,488 989,445 939,445 914,488 939,531 989,531"/>
    <polygon points="1014,563 989,520 939,520 914,563 939,606 989,606"/>
    <polygon points="1014,638 989,595 939,595 914,638 939,681 989,681"/>
  </g>

  <!-- ══ COL 3  x=1051  opacity 0.28 ══ -->
  <g stroke="#1ABCAC" stroke-width="0.9" fill="none" opacity="0.28">
    <polygon points="1101,0 1076,-43 1026,-43 1001,0 1026,43 1076,43"/>
    <polygon points="1101,75 1076,32 1026,32 1001,75 1026,118 1076,118"/>
    <polygon points="1101,150 1076,107 1026,107 1001,150 1026,193 1076,193"/>
    <polygon points="1101,225 1076,182 1026,182 1001,225 1026,268 1076,268"/>
    <!-- y=300 → accent, drawn separately -->
    <polygon points="1101,375 1076,332 1026,332 1001,375 1026,418 1076,418"/>
    <polygon points="1101,450 1076,407 1026,407 1001,450 1026,493 1076,493"/>
    <polygon points="1101,525 1076,482 1026,482 1001,525 1026,568 1076,568"/>
    <polygon points="1101,600 1076,557 1026,557 1001,600 1026,643 1076,643"/>
    <polygon points="1101,675 1076,632 1026,632 1001,675 1026,718 1076,718"/>
  </g>

  <!-- ══ COL 4  x=1138  opacity 0.28 ══ -->
  <g stroke="#0D9E90" stroke-width="0.9" fill="none" opacity="0.28">
    <polygon points="1188,38 1163,-5 1113,-5 1088,38 1113,81 1163,81"/>
    <polygon points="1188,113 1163,70 1113,70 1088,113 1113,156 1163,156"/>
    <!-- y=188 → accent -->
    <polygon points="1188,263 1163,220 1113,220 1088,263 1113,306 1163,306"/>
    <polygon points="1188,338 1163,295 1113,295 1088,338 1113,381 1163,381"/>
    <polygon points="1188,413 1163,370 1113,370 1088,413 1113,456 1163,456"/>
    <polygon points="1188,488 1163,445 1113,445 1088,488 1113,531 1163,531"/>
    <polygon points="1188,563 1163,520 1113,520 1088,563 1113,606 1163,606"/>
    <polygon points="1188,638 1163,595 1113,595 1088,638 1113,681 1163,681"/>
  </g>

  <!-- ══ COL 5  x=1225  opacity 0.24 ══ -->
  <g stroke="#0D9E90" stroke-width="0.8" fill="none" opacity="0.24">
    <polygon points="1275,0 1250,-43 1200,-43 1175,0 1200,43 1250,43"/>
    <polygon points="1275,75 1250,32 1200,32 1175,75 1200,118 1250,118"/>
    <polygon points="1275,150 1250,107 1200,107 1175,150 1200,193 1250,193"/>
    <polygon points="1275,225 1250,182 1200,182 1175,225 1200,268 1250,268"/>
    <polygon points="1275,300 1250,257 1200,257 1175,300 1200,343 1250,343"/>
    <polygon points="1275,375 1250,332 1200,332 1175,375 1200,418 1250,418"/>
    <!-- y=450 → accent -->
    <polygon points="1275,525 1250,482 1200,482 1175,525 1200,568 1250,568"/>
    <polygon points="1275,600 1250,557 1200,557 1175,600 1200,643 1250,643"/>
    <polygon points="1275,675 1250,632 1200,632 1175,675 1200,718 1250,718"/>
  </g>

  <!-- ══ COL 6  x=1312  opacity 0.20 ══ -->
  <g stroke="#0D9E90" stroke-width="0.8" fill="none" opacity="0.20">
    <polygon points="1362,38 1337,-5 1287,-5 1262,38 1287,81 1337,81"/>
    <polygon points="1362,113 1337,70 1287,70 1262,113 1287,156 1337,156"/>
    <polygon points="1362,188 1337,145 1287,145 1262,188 1287,231 1337,231"/>
    <polygon points="1362,263 1337,220 1287,220 1262,263 1287,306 1337,306"/>
    <polygon points="1362,338 1337,295 1287,295 1262,338 1287,381 1337,381"/>
    <polygon points="1362,413 1337,370 1287,370 1262,413 1287,456 1337,456"/>
    <polygon points="1362,488 1337,445 1287,445 1262,488 1287,531 1337,531"/>
    <polygon points="1362,563 1337,520 1287,520 1262,563 1287,606 1337,606"/>
    <polygon points="1362,638 1337,595 1287,595 1262,638 1287,681 1337,681"/>
  </g>

  <!-- ══ COL 7  x=1399  opacity 0.15 ══ -->
  <g stroke="#0D9E90" stroke-width="0.8" fill="none" opacity="0.15">
    <polygon points="1449,0 1424,-43 1374,-43 1349,0 1374,43 1424,43"/>
    <polygon points="1449,75 1424,32 1374,32 1349,75 1374,118 1424,118"/>
    <polygon points="1449,150 1424,107 1374,107 1349,150 1374,193 1424,193"/>
    <polygon points="1449,225 1424,182 1374,182 1349,225 1374,268 1424,268"/>
    <polygon points="1449,300 1424,257 1374,257 1349,300 1374,343 1424,343"/>
    <polygon points="1449,375 1424,332 1374,332 1349,375 1374,418 1424,418"/>
    <polygon points="1449,450 1424,407 1374,407 1349,450 1374,493 1424,493"/>
    <polygon points="1449,525 1424,482 1374,482 1349,525 1374,568 1424,568"/>
    <polygon points="1449,600 1424,557 1374,557 1349,600 1374,643 1424,643"/>
    <polygon points="1449,675 1424,632 1374,632 1349,675 1374,718 1424,718"/>
  </g>

  <!-- ══ ACCENT HEX 1 — primary glow (1051, 300) ══ -->
  <g filter="url(#glow-lg)" opacity="0.6">
    <polygon points="1101,300 1076,257 1026,257 1001,300 1026,343 1076,343"
      fill="rgba(26,188,172,0.10)" stroke="#1ABCAC" stroke-width="1.8"/>
  </g>
  <polygon points="1101,300 1076,257 1026,257 1001,300 1026,343 1076,343"
    fill="rgba(26,188,172,0.04)" stroke="url(#brand)" stroke-width="1.4" opacity="0.95"/>

  <!-- ══ ACCENT HEX 2 — secondary glow (1138, 188) ══ -->
  <g filter="url(#glow-md)" opacity="0.50">
    <polygon points="1188,188 1163,145 1113,145 1088,188 1113,231 1163,231"
      fill="rgba(26,188,172,0.07)" stroke="#1ABCAC" stroke-width="1.4"/>
  </g>
  <polygon points="1188,188 1163,145 1113,145 1088,188 1113,231 1163,231"
    fill="rgba(26,188,172,0.03)" stroke="#1ABCAC" stroke-width="1.0" opacity="0.80"/>

  <!-- ══ ACCENT HEX 3 — tertiary glow (1225, 450) ══ -->
  <g filter="url(#glow-md)" opacity="0.45">
    <polygon points="1275,450 1250,407 1200,407 1175,450 1200,493 1250,493"
      fill="rgba(13,158,144,0.07)" stroke="#0D9E90" stroke-width="1.4"/>
  </g>
  <polygon points="1275,450 1250,407 1200,407 1175,450 1200,493 1250,493"
    fill="rgba(13,158,144,0.03)" stroke="#0D9E90" stroke-width="1.0" opacity="0.75"/>

  <!-- ══ GLOWING VERTEX DOTS on accent hexes ══ -->
  <!-- Accent 1 (1051,300) vertices: (1101,300),(1076,257),(1026,257),(1001,300),(1026,343),(1076,343) -->
  <g filter="url(#glow-dot)" opacity="0.9">
    <circle cx="1101" cy="300" r="4" fill="#1ABCAC"/>
    <circle cx="1076" cy="257" r="3.5" fill="#1ABCAC"/>
    <circle cx="1026" cy="257" r="3.5" fill="#1ABCAC"/>
  </g>
  <circle cx="1101" cy="300" r="2.5" fill="#1ABCAC" opacity="1"/>
  <circle cx="1076" cy="257" r="2" fill="#1ABCAC" opacity="0.9"/>
  <circle cx="1026" cy="257" r="2" fill="#1ABCAC" opacity="0.9"/>
  <circle cx="1001" cy="300" r="2" fill="#0D9E90" opacity="0.85"/>
  <circle cx="1026" cy="343" r="2" fill="#0D9E90" opacity="0.80"/>
  <circle cx="1076" cy="343" r="2" fill="#0D9E90" opacity="0.80"/>

  <!-- Accent 2 (1138,188) vertices: (1188,188),(1163,145),(1113,145),(1088,188),(1113,231),(1163,231) -->
  <g filter="url(#glow-dot)" opacity="0.7">
    <circle cx="1188" cy="188" r="3" fill="#1ABCAC"/>
    <circle cx="1163" cy="145" r="2.5" fill="#1ABCAC"/>
  </g>
  <circle cx="1188" cy="188" r="2" fill="#1ABCAC" opacity="0.85"/>
  <circle cx="1163" cy="145" r="1.8" fill="#1ABCAC" opacity="0.75"/>
  <circle cx="1113" cy="145" r="1.8" fill="#1ABCAC" opacity="0.70"/>
  <circle cx="1088" cy="188" r="1.8" fill="#0D9E90" opacity="0.70"/>

  <!-- Accent 3 (1225,450) vertices: (1275,450),(1250,407),(1200,407),(1175,450),(1200,493),(1250,493) -->
  <g filter="url(#glow-dot)" opacity="0.65">
    <circle cx="1275" cy="450" r="3" fill="#0D9E90"/>
    <circle cx="1250" cy="493" r="2.5" fill="#0D9E90"/>
  </g>
  <circle cx="1275" cy="450" r="2" fill="#0D9E90" opacity="0.80"/>
  <circle cx="1200" cy="407" r="1.8" fill="#0D9E90" opacity="0.65"/>
  <circle cx="1200" cy="493" r="1.8" fill="#0D9E90" opacity="0.65"/>

  <!-- ══ CIRCUIT TRACES — between accent hex centers ══ -->
  <!-- Accent 1 → Accent 2 -->
  <line x1="1051" y1="300" x2="1138" y2="188" stroke="#1ABCAC" stroke-width="0.8" opacity="0.35"/>
  <!-- Accent 1 → Accent 3 -->
  <line x1="1051" y1="300" x2="1225" y2="450" stroke="#0D9E90" stroke-width="0.8" opacity="0.30"/>
  <!-- Accent 2 → right edge -->
  <polyline points="1138,188 1225,150 1312,113 1395,88" fill="none" stroke="#1ABCAC" stroke-width="0.7" opacity="0.20"/>
  <!-- Accent 1 → left neighbor -->
  <line x1="1001" y1="300" x2="927" y2="300" stroke="#1ABCAC" stroke-width="0.7" opacity="0.22"/>
  <!-- Accent 3 → bottom edge trace -->
  <polyline points="1225,450 1312,488 1362,540" fill="none" stroke="#0D9E90" stroke-width="0.7" opacity="0.18"/>

  <!-- ══ LEFT FADE ══ -->
  <rect width="1440" height="700" fill="url(#fade)"/>
</svg>
